<svg version="1.1" id="Layer_1" xmlns="http://www.w3.org/2000/svg" xmlns:xlink="http://www.w3.org/1999/xlink" x="0px" y="0px"
	 width="100%" viewBox="0 0 225 225" enable-background="new 0 0 225 225" xml:space="preserve">
<path fill="#030535" opacity="1.000000" stroke="none" 
	d="
M226.000000,169.000000 
	C226.000000,176.687576 226.000000,184.375168 225.531342,192.531006 
	C150.375122,192.999512 75.687561,192.999756 1.000000,193.000000 
	C1.000000,185.312424 1.000000,177.624832 1.468657,169.468979 
	C76.624878,169.000458 151.312439,169.000229 226.000000,169.000000 
z"/>
<path fill="#0C1172" opacity="1.000000" stroke="none" 
	d="
M226.000000,65.000000 
	C226.000000,72.687576 226.000000,80.375153 225.542450,88.530838 
	C220.708649,89.374992 216.332367,89.751045 211.642456,89.850685 
	C200.330444,89.402679 189.332245,89.198761 178.333221,89.129059 
	C177.564377,89.124191 176.789230,90.113670 175.629456,90.822807 
	C168.407578,90.787735 161.573273,90.570602 154.306641,90.161728 
	C149.588394,90.135643 145.302429,90.301308 140.559296,90.559875 
	C136.027100,90.592789 131.952118,90.532799 127.579071,90.350128 
	C125.777931,91.791901 124.274841,93.356346 122.790894,94.900887 
	C122.510063,93.521957 122.107430,91.544975 121.798378,90.027458 
	C116.685829,90.027458 111.850067,90.027458 107.003769,89.622574 
	C105.735504,87.824188 104.656586,85.541016 103.178513,85.243965 
	C100.914520,84.788971 98.309410,85.455147 95.965630,86.081512 
	C88.964264,87.952637 82.024612,88.885498 75.230530,85.480461 
	C68.839149,82.277252 64.754936,83.442245 61.582100,90.018356 
	C60.524384,89.225143 59.612217,88.408653 58.579056,87.796310 
	C56.889908,86.795143 55.092781,85.138062 53.394596,85.200874 
	C51.237457,85.280685 49.074177,86.684296 47.022533,87.730782 
	C44.710152,88.910301 40.813995,88.355095 41.133511,92.862381 
	C40.885815,93.176125 40.682976,93.217735 40.100281,93.093727 
	C39.510292,93.026039 39.274376,92.998268 38.998825,92.608887 
	C35.319363,87.899239 29.650358,86.681374 25.027176,88.035034 
	C22.305870,88.831825 19.062450,87.888786 16.058918,87.661438 
	C14.362708,87.533043 12.635829,86.935280 10.994739,87.136353 
	C7.637445,87.547707 4.328724,88.355484 1.000000,89.000000 
	C1.000000,81.312424 1.000000,73.624847 1.468657,65.468788 
	C76.624878,65.000198 151.312439,65.000099 226.000000,65.000000 
z"/>
<path fill="#0D137D" opacity="1.000000" stroke="none" 
	d="
M226.000000,64.531364 
	C151.312439,65.000099 76.624878,65.000198 1.468657,65.000153 
	C1.000000,57.645748 1.000000,50.291500 1.468632,42.468575 
	C15.870558,41.999882 29.803850,41.999859 43.737144,41.999847 
	C57.837051,41.999840 71.936958,41.999844 86.036865,41.999844 
	C99.803589,41.999844 113.570305,41.999851 127.337029,41.999844 
	C135.772781,41.999836 144.208542,41.999798 152.644302,41.999794 
	C174.301346,41.999779 195.958511,42.035763 217.615250,41.955544 
	C220.411316,41.945190 223.205139,41.333267 226.000000,41.000000 
	C226.000000,48.687576 226.000000,56.375153 226.000000,64.531364 
z"/>
<path fill="#07094B" opacity="1.000000" stroke="none" 
	d="
M226.000000,137.000000 
	C226.000000,142.022095 226.000000,147.044189 225.531342,152.532776 
	C150.375122,152.999512 75.687561,152.999756 1.000000,153.000000 
	C1.000000,148.310745 1.000000,143.621490 1.434027,138.466125 
	C5.487200,138.109421 9.072534,138.343781 11.599815,134.802002 
	C12.084348,134.122971 13.702181,134.252625 14.913233,134.413605 
	C18.592184,135.166367 22.155075,135.514694 26.061401,136.016327 
	C31.049135,136.498337 35.657352,136.686462 39.568405,132.988449 
	C47.175571,137.622849 54.914757,137.059204 62.985336,135.485672 
	C67.306007,136.513107 71.392860,137.425095 75.529922,137.894958 
	C80.094040,138.413330 84.144348,137.095734 87.520813,133.531921 
	C98.930359,138.767151 108.971550,137.452423 118.158928,129.092941 
	C119.820854,130.179749 121.188736,131.084717 123.448563,132.579773 
	C122.702438,129.723923 122.343704,128.350845 122.376923,126.959305 
	C124.931503,126.466743 127.094139,125.992638 129.585068,125.446564 
	C128.823792,122.948898 126.531914,119.858574 131.581604,120.404694 
	C131.774826,121.872047 131.868896,122.946045 131.848328,124.397804 
	C131.633209,125.817352 131.532745,126.859138 131.164856,127.905235 
	C130.263199,128.188904 129.628967,128.468262 128.637482,128.834778 
	C127.546333,128.963943 126.812462,129.005920 125.879555,129.044647 
	C125.593796,129.364365 125.507080,129.687317 125.438538,130.430542 
	C125.967880,132.586319 126.479057,134.321838 127.324753,136.228943 
	C130.107697,136.276062 132.556137,136.151627 135.450775,135.979233 
	C138.868240,135.922684 141.839508,135.914078 145.149582,135.690247 
	C145.664215,133.305801 145.840027,131.136581 146.069336,128.643951 
	C146.750443,127.202629 147.378052,126.084740 148.062897,125.316666 
	C147.802460,129.060043 147.484772,132.453598 147.167084,135.847168 
	C147.632156,135.881073 148.097229,135.914978 148.562302,135.948868 
	C148.869598,134.234482 149.176910,132.520096 149.350647,131.550873 
	C151.319702,130.817749 152.702164,130.303040 154.409958,129.934052 
	C156.954346,134.173096 159.591019,137.488541 165.386292,135.689056 
	C166.346191,134.853897 166.940445,133.931412 167.782043,133.120728 
	C169.171555,133.252792 170.313721,133.273056 171.455902,133.293320 
	C171.381348,130.064377 174.688995,130.568787 176.068359,129.477142 
	C175.983749,131.716507 175.983749,133.516785 175.983749,135.894211 
	C182.017456,135.894211 187.802551,136.016541 193.571335,135.764877 
	C194.456573,135.726257 195.266602,133.963623 196.436768,133.106476 
	C199.766846,136.689621 203.646362,137.257828 208.013428,137.065369 
	C213.998276,136.801620 220.003510,136.999786 226.000000,137.000000 
M119.473785,133.495682 
	C119.473785,133.495682 119.510956,133.481125 119.473785,133.495682 
z"/>
<path fill="#010120" opacity="1.000000" stroke="none" 
	d="
M226.000000,209.000000 
	C226.000000,214.656998 226.000000,220.314011 226.000000,225.963898 
	C150.999985,225.956787 75.999985,225.956787 1.000000,225.956787 
	C1.000000,220.589355 1.000000,215.265121 1.468657,209.470154 
	C76.624878,208.999619 151.312439,208.999817 226.000000,209.000000 
z"/>
<path fill="#0D1489" opacity="1.000000" stroke="none" 
	d="
M226.000000,40.533142 
	C223.205139,41.333267 220.411316,41.945190 217.615250,41.955544 
	C195.958511,42.035763 174.301346,41.999779 152.644302,41.999794 
	C144.208542,41.999798 135.772781,41.999836 127.337029,41.999844 
	C113.570305,41.999851 99.803589,41.999844 86.036865,41.999844 
	C71.936958,41.999844 57.837051,41.999840 43.737144,41.999847 
	C29.803850,41.999859 15.870558,41.999882 1.468632,41.999947 
	C1.000000,36.645069 1.000000,31.290140 1.468657,25.467228 
	C76.624878,24.999496 151.312439,24.999748 226.000000,25.000000 
	C226.000000,30.022093 226.000000,35.044186 226.000000,40.533142 
z"/>
<path fill="#01032A" opacity="1.000000" stroke="none" 
	d="
M226.000000,208.533142 
	C151.312439,208.999817 76.624878,208.999619 1.468657,208.999710 
	C1.000000,203.977905 1.000000,198.955811 1.000000,193.466858 
	C75.687561,192.999756 150.375122,192.999512 225.531342,192.999634 
	C226.000000,198.022095 226.000000,203.044189 226.000000,208.533142 
z"/>
<path fill="#050741" opacity="1.000000" stroke="none" 
	d="
M1.000000,153.466858 
	C75.687561,152.999756 150.375122,152.999512 225.531342,152.999634 
	C226.000000,158.022095 226.000000,163.044189 226.000000,168.533142 
	C151.312439,169.000229 76.624878,169.000458 1.468657,169.000351 
	C1.000000,163.977905 1.000000,158.955811 1.000000,153.466858 
z"/>
<path fill="#0E1793" opacity="1.000000" stroke="none" 
	d="
M226.000000,24.533882 
	C151.312439,24.999748 76.624878,24.999496 1.468657,24.999622 
	C1.000000,20.310745 1.000000,15.621490 1.468657,10.466154 
	C76.624878,10.000050 151.312439,10.000025 226.000000,10.000000 
	C226.000000,14.689256 226.000000,19.378511 226.000000,24.533882 
z"/>
<path fill="#101999" opacity="1.000000" stroke="none" 
	d="
M226.000000,9.508951 
	C151.312439,10.000025 76.624878,10.000050 1.468657,10.000036 
	C1.000000,7.005964 1.000000,4.011929 1.000001,1.017397 
	C76.000000,1.016901 151.000000,1.016901 226.000000,1.016901 
	C226.000000,3.695169 226.000000,6.356536 226.000000,9.508951 
z"/>
<path fill="#090B54" opacity="1.000000" stroke="none" 
	d="
M226.000000,136.533142 
	C220.003510,136.999786 213.998276,136.801620 208.013428,137.065369 
	C203.646362,137.257828 199.766846,136.689621 196.340225,132.700073 
	C196.569321,127.146294 191.857010,129.958755 190.283661,128.547256 
	C190.283661,124.419861 190.283661,120.561058 190.283661,116.417961 
	C194.162491,116.947121 198.928345,114.218407 199.492630,120.734276 
	C201.451950,120.734276 203.101257,120.734276 204.950439,120.660454 
	C205.365036,120.335907 205.386276,120.069687 205.235443,119.710815 
	C205.256866,119.633659 205.414917,119.659424 205.867493,119.748352 
	C212.880051,120.224854 219.440033,120.612427 226.000000,121.000000 
	C226.000000,126.022095 226.000000,131.044189 226.000000,136.533142 
z"/>
<path fill="#0A0F66" opacity="1.000000" stroke="none" 
	d="
M1.000000,89.466858 
	C4.328724,88.355484 7.637445,87.547707 10.994739,87.136353 
	C12.635829,86.935280 14.362708,87.533043 16.058918,87.661438 
	C19.062450,87.888786 22.305870,88.831825 25.027176,88.035034 
	C29.650358,86.681374 35.319363,87.899239 38.633087,92.593643 
	C36.858761,92.418739 35.410534,91.897461 33.962311,91.376183 
	C33.517349,91.670708 33.072392,91.965233 32.627434,92.259758 
	C33.544914,93.881813 34.462395,95.503860 35.269394,97.461708 
	C33.414902,100.536636 31.670885,103.275780 29.697977,106.012787 
	C29.469084,106.010658 29.011288,106.013329 28.790913,105.718185 
	C27.987169,103.442589 27.403799,101.462135 26.820429,99.481682 
	C25.628683,104.953850 25.628757,104.974564 20.268669,104.993706 
	C13.845854,105.016647 7.422896,104.999680 1.000000,105.000000 
	C1.000000,99.977905 1.000000,94.955818 1.000000,89.466858 
z"/>
<path fill="#090E5D" opacity="1.000000" stroke="none" 
	d="
M1.000000,105.466858 
	C7.422896,104.999680 13.845854,105.016647 20.268669,104.993706 
	C25.628757,104.974564 25.628683,104.953850 26.820429,99.481682 
	C27.403799,101.462135 27.987169,103.442589 28.788567,106.182999 
	C28.998705,110.555412 29.338449,114.215340 28.854053,117.762718 
	C28.558010,119.930717 26.995468,121.925774 25.915623,123.757492 
	C23.043089,123.568565 20.246653,123.505234 17.476595,123.745735 
	C16.685305,123.814438 15.970507,124.764168 15.185337,125.305344 
	C15.150039,125.300774 15.217765,125.312416 14.985392,125.395813 
	C13.809688,124.476395 12.866358,123.473587 11.213664,121.716682 
	C8.803761,121.547577 4.901881,121.273788 1.000000,121.000000 
	C1.000000,115.977905 1.000000,110.955818 1.000000,105.466858 
z"/>
<path fill="#070C5C" opacity="1.000000" stroke="none" 
	d="
M226.000000,120.533142 
	C219.440033,120.612427 212.880051,120.224854 205.788391,119.511642 
	C205.202988,118.842033 205.264938,118.520348 205.737823,117.955948 
	C205.835907,115.460495 205.638733,113.230026 205.351334,110.630829 
	C205.318832,109.510048 205.376572,108.757996 205.823868,108.003876 
	C208.140930,107.335663 210.068405,106.669518 212.027039,105.756699 
	C212.058182,105.510025 212.011063,105.014999 212.097244,104.576263 
	C212.273590,101.761101 212.363739,99.384666 212.749496,97.149261 
	C214.296402,100.022614 215.547684,102.754944 216.814957,105.522186 
	C219.240768,105.384277 222.620377,105.192139 226.000000,105.000000 
	C226.000000,110.022095 226.000000,115.044182 226.000000,120.533142 
z"/>
<path fill="#070A52" opacity="1.000000" stroke="none" 
	d="
M1.000000,121.467606 
	C4.901881,121.273788 8.803761,121.547577 11.213664,121.716682 
	C12.866358,123.473587 13.809688,124.476395 14.910743,125.819641 
	C14.978037,128.776443 14.887605,131.392822 14.797173,134.009186 
	C13.702181,134.252625 12.084348,134.122971 11.599815,134.802002 
	C9.072534,138.343781 5.487200,138.109421 1.434027,138.000000 
	C1.000000,132.645065 1.000000,127.290138 1.000000,121.467606 
M11.157401,127.514717 
	C11.157401,127.514717 10.879473,127.424179 10.879473,127.424179 
	C10.879473,127.424179 11.055588,127.628922 11.157401,127.514717 
z"/>
<path fill="#090E65" opacity="1.000000" stroke="none" 
	d="
M226.000000,104.533142 
	C222.620377,105.192139 219.240768,105.384277 216.814957,105.522186 
	C215.547684,102.754944 214.296402,100.022614 212.660309,96.709122 
	C212.203796,94.331345 212.132080,92.534729 212.023926,90.587135 
	C211.987488,90.436150 211.956100,90.127098 211.956100,90.127098 
	C216.332367,89.751045 220.708649,89.374992 225.542450,88.999474 
	C226.000000,94.022095 226.000000,99.044182 226.000000,104.533142 
z"/>
<path fill="#C4C4C8" opacity="1.000000" stroke="none" 
	d="
M212.060349,90.738121 
	C212.132080,92.534729 212.203796,94.331345 212.364700,96.568092 
	C212.363739,99.384666 212.273590,101.761101 211.652847,104.595718 
	C209.044693,105.011543 206.967133,104.969185 205.001984,104.584824 
	C205.024048,102.246086 204.933685,100.249344 204.825912,97.868019 
	C201.311554,97.868019 198.026398,97.770477 194.750214,97.899910 
	C192.277145,97.997604 189.460526,98.177513 190.002716,101.801224 
	C190.384079,104.350060 187.964996,108.291206 192.773926,108.944740 
	C195.764801,109.351204 199.285278,109.892113 199.335815,104.847992 
	C201.382278,104.847992 203.177231,104.847992 205.087112,105.171677 
	C205.258286,105.717339 205.314499,105.939323 205.302155,106.468613 
	C205.300491,107.185928 205.367386,107.595932 205.434296,108.005936 
	C205.376572,108.757996 205.318832,109.510048 205.256134,110.957260 
	C205.314941,113.841927 205.378738,116.031433 205.442551,118.220940 
	C205.264938,118.520348 205.202988,118.842033 205.335815,119.422714 
	C205.414917,119.659424 205.256866,119.633659 205.080231,119.820305 
	C204.751282,120.228081 204.700256,120.470520 204.750565,120.734276 
	C203.101257,120.734276 201.451950,120.734276 199.492630,120.734276 
	C198.928345,114.218407 194.162491,116.947121 190.283661,116.417961 
	C190.283661,120.561058 190.283661,124.419861 190.283661,128.547256 
	C191.857010,129.958755 196.569321,127.146294 196.014877,132.591919 
	C195.266602,133.963623 194.456573,135.726257 193.571335,135.764877 
	C187.802551,136.016541 182.017456,135.894211 175.983749,135.894211 
	C175.983749,133.516785 175.983749,131.716507 176.453186,129.468094 
	C178.292130,128.685303 179.661652,128.350647 181.169312,127.563217 
	C181.307465,117.531120 181.307465,107.951797 181.307465,98.109993 
	C179.580414,98.109993 178.305817,98.109993 176.595581,98.024178 
	C174.108231,97.990425 172.056488,98.042488 169.680145,98.012070 
	C168.913010,97.967110 168.470490,98.004608 167.776230,98.000214 
	C167.357239,97.989426 167.189972,98.020523 166.786652,97.863647 
	C164.357635,97.808014 162.164658,97.940361 159.728760,98.021927 
	C159.485855,97.971138 158.997879,98.061821 158.664001,97.989937 
	C156.953781,97.610161 155.577438,97.302261 154.486084,96.878723 
	C155.267349,95.717422 155.763641,94.671753 156.259933,93.626083 
	C156.019455,93.494469 155.778976,93.362846 155.538483,93.231232 
	C155.061676,93.816986 154.584854,94.402740 154.031021,94.591339 
	C154.215652,92.913940 154.477295,91.633713 154.738953,90.353470 
	C161.573273,90.570602 168.407578,90.787735 176.097473,90.817169 
	C188.655487,90.665688 200.357910,90.701904 212.060349,90.738121 
M157.144760,94.111282 
	C157.620483,94.743202 158.096191,95.375114 158.571915,96.007034 
	C163.192627,92.187691 167.903717,94.297531 172.706024,96.239952 
	C171.656601,91.578209 163.325394,90.269600 157.144760,94.111282 
z"/>
<path fill="#C6C7C9" opacity="1.000000" stroke="none" 
	d="
M159.971680,98.072708 
	C162.164658,97.940361 164.357635,97.808014 166.829819,98.155792 
	C167.213470,98.803093 167.317902,98.970268 167.433151,99.532455 
	C167.562241,100.960121 167.680527,101.992767 167.687515,103.258682 
	C167.634094,103.654243 167.691956,103.816536 167.578003,104.221153 
	C167.300262,104.630775 167.194305,104.798073 166.836914,105.299866 
	C166.388718,109.065849 166.175278,112.496475 165.998779,115.929001 
	C165.661621,122.486000 165.345490,129.044083 165.020645,135.601715 
	C159.591019,137.488541 156.954346,134.173096 154.424133,129.582306 
	C152.486771,126.689034 150.860580,124.293251 149.193756,121.520355 
	C146.453842,116.083702 143.754547,111.024170 141.017151,105.657333 
	C140.176498,104.809097 139.373917,104.268173 138.571350,103.727257 
	C138.831085,104.510155 139.090820,105.293045 139.307816,106.494324 
	C139.287674,108.593468 139.310272,110.274223 139.238693,112.224121 
	C139.199738,112.675133 139.254974,112.857018 139.274292,113.501358 
	C139.228043,117.863174 139.089554,121.769112 139.289368,125.657669 
	C139.345673,126.753387 140.393616,127.798149 141.319656,128.963837 
	C142.104126,128.989471 142.555649,128.917572 143.324020,128.903839 
	C144.069199,128.992249 144.497528,129.022491 145.003769,129.477936 
	C144.991364,131.903931 144.901062,133.904709 144.810760,135.905487 
	C141.839508,135.914078 138.868240,135.922684 135.020645,135.847076 
	C131.759613,135.861053 129.374924,135.959213 126.990234,136.057373 
	C126.479057,134.321838 125.967880,132.586319 125.649994,130.222015 
	C125.921730,129.411469 126.000168,129.229675 126.078598,129.047897 
	C126.812462,129.005920 127.546333,128.963943 128.938690,128.936066 
	C130.208893,128.600418 130.820602,128.250671 131.432297,127.900917 
	C131.532745,126.859138 131.633209,125.817352 132.090179,124.058838 
	C132.312927,115.230705 132.179138,107.119316 131.820145,98.699348 
	C129.867905,98.390778 128.140884,98.390778 125.965523,98.390778 
	C126.345200,95.739517 123.399330,92.429726 127.877121,90.472809 
	C131.952118,90.532799 136.027100,90.592789 140.828613,90.805939 
	C147.153061,100.413490 152.750992,109.867889 158.412476,119.599960 
	C158.827408,120.075981 159.178802,120.274330 159.530197,120.472679 
	C159.593979,119.622383 159.657761,118.772087 159.750092,117.536179 
	C159.759323,116.119911 159.740005,115.089272 159.812912,113.782944 
	C159.852875,113.320633 159.800629,113.134003 159.780090,112.494827 
	C159.788483,108.715271 159.765213,105.388268 159.815765,101.780014 
	C159.831985,101.313652 159.774368,101.128555 159.755463,100.626862 
	C159.771774,99.886246 159.749374,99.462242 159.836029,98.808990 
	C159.953934,98.410736 159.962799,98.241730 159.971680,98.072708 
z"/>
<path fill="#C3C4C9" opacity="1.000000" stroke="none" 
	d="
M29.926870,106.014915 
	C31.670885,103.275780 33.414902,100.536636 35.551369,97.307877 
	C37.447330,95.590050 38.950844,94.361847 40.454353,93.133644 
	C40.682976,93.217735 40.885815,93.176125 41.527962,92.783737 
	C48.850899,89.561966 55.739559,89.059982 62.730137,92.168785 
	C63.473728,92.499466 64.504395,92.541641 65.299744,92.331345 
	C67.596375,91.724106 69.840805,90.919403 72.655586,90.015709 
	C72.855850,94.436996 73.004250,97.713181 73.074921,101.418053 
	C72.352592,103.286423 71.649673,105.969200 71.073883,105.942177 
	C69.012749,105.845474 66.323746,105.436516 65.077858,104.056892 
	C60.004490,98.438911 54.270100,96.410843 47.867676,98.717842 
	C41.175068,101.129410 37.866966,109.420959 39.917717,118.643936 
	C41.211407,124.462128 44.457809,127.594841 50.290066,128.653046 
	C56.527847,129.784821 62.213268,127.617470 65.198013,122.969948 
	C68.237297,118.237495 70.064827,118.255692 74.045792,123.388657 
	C71.822845,129.108185 67.704529,132.537231 62.773651,135.175293 
	C54.914757,137.059204 47.175571,137.622849 39.381790,132.704742 
	C34.338226,129.083038 31.660910,124.645370 30.929979,119.210854 
	C30.342941,114.846191 30.242973,110.416016 29.926870,106.014915 
z"/>
<path fill="#0E126B" opacity="1.000000" stroke="none" 
	d="
M73.152649,100.989372 
	C73.004250,97.713181 72.855850,94.436996 72.655586,90.015709 
	C69.840805,90.919403 67.596375,91.724106 65.299744,92.331345 
	C64.504395,92.541641 63.473728,92.499466 62.730137,92.168785 
	C55.739559,89.059982 48.850899,89.561966 41.598602,92.637299 
	C40.813995,88.355095 44.710152,88.910301 47.022533,87.730782 
	C49.074177,86.684296 51.237457,85.280685 53.394596,85.200874 
	C55.092781,85.138062 56.889908,86.795143 58.579056,87.796310 
	C59.612217,88.408653 60.524384,89.225143 61.582100,90.018356 
	C64.754936,83.442245 68.839149,82.277252 75.230530,85.480461 
	C82.024612,88.885498 88.964264,87.952637 95.965630,86.081512 
	C98.309410,85.455147 100.914520,84.788971 103.178513,85.243965 
	C104.656586,85.541016 105.735504,87.824188 107.000259,89.853745 
	C107.007294,90.489792 106.995636,90.952705 106.592308,90.840866 
	C100.276878,91.226700 94.364784,91.724373 88.282898,91.937393 
	C87.472527,91.228653 86.831947,90.804565 86.191368,90.380486 
	C86.038429,90.654541 85.885490,90.928596 85.732552,91.202652 
	C86.627541,91.553970 87.522522,91.905289 88.239655,92.555176 
	C86.016815,94.238068 83.971840,95.622383 81.752975,97.190735 
	C81.436653,97.680458 81.294228,97.986145 81.154037,98.233826 
	C81.156265,98.175819 81.271034,98.193336 80.913872,98.247543 
	C80.131714,99.302963 79.706718,100.304184 79.270416,101.247070 
	C79.259109,101.188736 79.377838,101.183876 79.067352,101.247833 
	C77.649513,101.818054 76.542152,102.324310 75.289482,102.897003 
	C75.365242,101.736023 75.423515,100.842979 75.512108,99.485260 
	C74.468590,100.150482 73.810616,100.569923 73.152649,100.989372 
z"/>
<path fill="#0B0E62" opacity="1.000000" stroke="none" 
	d="
M159.720703,114.058624 
	C159.740005,115.089272 159.759323,116.119911 159.391937,117.871651 
	C158.786484,118.835922 158.567703,119.079102 158.348938,119.322281 
	C152.750992,109.867889 147.153061,100.413490 141.285797,90.713028 
	C145.302429,90.301308 149.588394,90.135643 154.306641,90.161728 
	C154.477295,91.633713 154.215652,92.913940 153.972321,94.927322 
	C154.060776,96.105103 154.130936,96.549736 154.201096,96.994362 
	C155.577438,97.302261 156.953781,97.610161 158.739609,98.184967 
	C159.270996,98.717018 159.463623,98.912476 159.726990,99.038239 
	C159.749374,99.462242 159.771774,99.886246 159.632477,100.744049 
	C159.561157,101.472321 159.651550,101.766792 159.741928,102.061264 
	C159.765213,105.388268 159.788483,108.715271 159.665512,112.611862 
	C159.384155,113.523987 159.451309,113.816383 159.720703,114.058624 
z"/>
<path fill="#1A1D6D" opacity="1.000000" stroke="none" 
	d="
M106.995636,90.952705 
	C106.995636,90.952705 107.007294,90.489792 107.010803,90.258621 
	C111.850067,90.027458 116.685829,90.027458 121.798378,90.027458 
	C122.107430,91.544975 122.510063,93.521957 122.790894,94.900887 
	C124.274841,93.356346 125.777931,91.791901 127.579071,90.350128 
	C123.399330,92.429726 126.345200,95.739517 125.965523,98.390778 
	C128.140884,98.390778 129.867905,98.390778 131.725006,99.033295 
	C131.745285,100.124397 131.635529,100.572990 131.154938,101.017120 
	C128.395660,101.362419 126.007195,101.712189 123.618736,102.061951 
	C123.684692,101.712715 123.750656,101.363487 123.816612,101.014259 
	C122.478935,100.779488 121.141258,100.544716 119.523788,100.117081 
	C115.161201,96.933708 111.078415,93.943207 106.995636,90.952705 
z"/>
<path fill="#03025F" opacity="1.000000" stroke="none" 
	d="
M212.023926,90.587135 
	C200.357910,90.701904 188.655487,90.665688 176.485031,90.635117 
	C176.789230,90.113670 177.564377,89.124191 178.333221,89.129059 
	C189.332245,89.198761 200.330444,89.402679 211.642456,89.850685 
	C211.956100,90.127098 211.987488,90.436150 212.023926,90.587135 
z"/>
<path fill="#0E126B" opacity="1.000000" stroke="none" 
	d="
M40.100281,93.093727 
	C38.950844,94.361847 37.447330,95.590050 35.661850,96.972084 
	C34.462395,95.503860 33.544914,93.881813 32.627434,92.259758 
	C33.072392,91.965233 33.517349,91.670708 33.962311,91.376183 
	C35.410534,91.897461 36.858761,92.418739 38.672726,92.955261 
	C39.274376,92.998268 39.510292,93.026039 40.100281,93.093727 
z"/>
<path fill="#C3C4C8" opacity="1.000000" stroke="none" 
	d="
M106.592308,90.840866 
	C111.078415,93.943207 115.161201,96.933708 119.625481,100.462051 
	C120.938583,106.971664 121.870193,112.943420 122.587929,119.193130 
	C120.870995,122.617752 119.367935,125.764427 117.864868,128.911102 
	C108.971550,137.452423 98.930359,138.767151 87.313934,133.299469 
	C84.728851,131.045792 82.701363,129.167892 80.583450,127.050140 
	C80.181183,126.409058 79.869331,126.007820 79.522133,125.641373 
	C79.486786,125.676147 79.584198,125.694763 79.496536,125.347305 
	C78.988960,124.440781 78.569054,123.881721 78.198921,123.237198 
	C78.248695,123.151733 78.087341,123.037323 78.089630,122.704071 
	C77.778221,121.550690 77.464516,120.730553 77.158386,119.452759 
	C77.069542,115.321747 76.973122,111.648415 77.031891,107.704681 
	C77.366524,106.625053 77.545990,105.815834 77.923653,104.718597 
	C78.540520,103.348351 78.959183,102.266113 79.377838,101.183876 
	C79.377838,101.183876 79.259109,101.188736 79.523277,101.059692 
	C80.281975,100.018204 80.776505,99.105766 81.271034,98.193336 
	C81.271034,98.193336 81.156265,98.175819 81.403931,98.103363 
	C81.743355,97.689507 81.835114,97.348106 81.926872,97.006699 
	C83.971840,95.622383 86.016815,94.238068 88.214508,92.516418 
	C88.367218,92.179092 88.452682,92.222046 88.452682,92.222046 
	C94.364784,91.724373 100.276878,91.226700 106.592308,90.840866 
M113.351357,117.581383 
	C114.772942,108.402382 111.864197,101.520279 105.481453,98.961166 
	C97.757355,95.864227 89.981064,99.136154 87.032982,106.723480 
	C83.720627,115.248322 87.213432,125.214432 94.757378,127.851219 
	C102.980957,130.725555 108.665390,127.997910 113.351357,117.581383 
z"/>
<path fill="#080D5B" opacity="1.000000" stroke="none" 
	d="
M167.798798,103.025421 
	C167.680527,101.992767 167.562241,100.960121 167.591385,99.388519 
	C167.870300,98.592987 167.966690,98.323837 168.027969,98.042114 
	C168.470490,98.004608 168.913010,97.967110 169.771942,98.274406 
	C177.994644,101.071152 177.993988,101.071152 178.001801,109.549881 
	C178.003769,111.680969 177.774750,113.848923 178.098892,115.930321 
	C178.319092,117.344299 179.318634,118.636909 179.978912,120.399551 
	C179.690002,123.114616 179.391861,125.413925 179.072723,127.875198 
	C179.415970,127.899872 180.223572,127.957924 181.031174,128.015991 
	C179.661652,128.350647 178.292130,128.685303 176.537781,129.029022 
	C174.688995,130.568787 171.381348,130.064377 171.455902,133.293320 
	C170.313721,133.273056 169.171555,133.252792 167.706116,132.780594 
	C167.486053,131.884293 167.589264,131.439941 167.978912,130.987000 
	C168.928909,130.690445 169.592453,130.402481 170.256012,130.114517 
	C169.843231,129.735916 169.430450,129.357330 168.934708,128.884537 
	C168.606659,128.629364 168.417175,128.683151 168.198578,129.105881 
	C167.998154,129.465652 167.857666,129.652649 167.553741,129.434479 
	C167.507950,127.696465 167.600861,126.345039 167.944626,124.960358 
	C168.598434,124.534721 169.001373,124.142334 169.404327,123.749954 
	C168.834290,123.501350 168.264236,123.252739 167.553207,122.639374 
	C167.507721,121.511131 167.603226,120.747627 167.951904,119.782379 
	C168.037247,117.391777 167.869400,115.202919 167.558502,112.587601 
	C167.306412,109.762550 167.197388,107.363953 167.088348,104.965363 
	C167.194305,104.798073 167.300262,104.630775 167.700409,104.166779 
	C168.099899,103.778954 168.205185,103.687836 168.310486,103.596725 
	C168.139923,103.406288 167.969360,103.215858 167.798798,103.025421 
z"/>
<path fill="#0A0E5D" opacity="1.000000" stroke="none" 
	d="
M122.801804,118.915184 
	C121.870193,112.943420 120.938583,106.971664 119.905273,100.654922 
	C121.141258,100.544716 122.478935,100.779488 123.816612,101.014259 
	C123.750656,101.363487 123.684692,101.712715 123.618736,102.061951 
	C126.007195,101.712189 128.395660,101.362419 131.248291,101.475464 
	C131.635803,107.962616 131.559143,113.986969 131.482468,120.011322 
	C126.531914,119.858574 128.823792,122.948898 129.585068,125.446564 
	C127.094139,125.992638 124.931503,126.466743 122.523727,126.628365 
	C122.453003,123.848984 122.627403,121.382088 122.801804,118.915184 
M125.654503,105.502380 
	C125.359337,105.257645 125.064163,105.012909 124.769005,104.768173 
	C124.659615,105.157181 124.550232,105.546188 124.440842,105.935196 
	C124.808395,105.935204 125.175941,105.935211 125.654503,105.502380 
M130.068558,104.617561 
	C130.068558,104.617561 130.003357,104.393700 130.003357,104.393700 
	C130.003357,104.393700 129.928482,104.615669 130.068558,104.617561 
z"/>
<path fill="#0E1054" opacity="1.000000" stroke="none" 
	d="
M80.673874,127.289986 
	C82.701363,129.167892 84.728851,131.045792 86.963211,133.156128 
	C84.144348,137.095734 80.094040,138.413330 75.529922,137.894958 
	C71.392860,137.425095 67.306007,136.513107 62.985336,135.485672 
	C67.704529,132.537231 71.822845,129.108185 74.242188,123.646027 
	C76.037689,125.048462 77.517616,126.522942 78.998772,127.998711 
	C79.000000,128.000000 79.003571,128.002197 79.109467,128.109375 
	C79.215370,128.216568 79.634872,128.270782 79.634872,128.270782 
	C79.634872,128.270782 79.987053,128.008087 80.160477,127.830208 
	C80.333908,127.652328 80.673874,127.289986 80.673874,127.289986 
z"/>
<path fill="#0B0E59" opacity="1.000000" stroke="none" 
	d="
M140.986725,128.866287 
	C140.393616,127.798149 139.345673,126.753387 139.289368,125.657669 
	C139.089554,121.769112 139.228043,117.863174 139.394348,113.390228 
	C139.692062,112.470795 139.619583,112.183578 139.332870,111.954987 
	C139.310272,110.274223 139.287674,108.593468 139.593155,106.490799 
	C140.299240,106.034149 140.677231,105.999397 141.055237,105.964645 
	C143.754547,111.024170 146.453842,116.083702 148.949615,121.761154 
	C148.499283,123.241661 148.252472,124.104256 148.005661,124.966850 
	C147.378052,126.084740 146.750443,127.202629 145.794891,128.640991 
	C145.286591,128.991882 145.106232,129.022308 144.925873,129.052734 
	C144.497528,129.022491 144.069199,128.992249 143.152420,128.742737 
	C142.104904,128.637756 141.545807,128.752014 140.986725,128.866287 
z"/>
<path fill="#0C0F55" opacity="1.000000" stroke="none" 
	d="
M29.697977,106.012787 
	C30.242973,110.416016 30.342941,114.846191 30.929979,119.210854 
	C31.660910,124.645370 34.338226,129.083038 39.052711,132.592102 
	C35.657352,136.686462 31.049135,136.498337 26.150757,135.587372 
	C25.872606,131.872482 25.848541,128.739853 25.867500,125.204895 
	C25.940926,124.534546 25.971333,124.266525 26.001740,123.998497 
	C26.995468,121.925774 28.558010,119.930717 28.854053,117.762718 
	C29.338449,114.215340 28.998705,110.555412 29.008940,106.478149 
	C29.011288,106.013329 29.469084,106.010658 29.697977,106.012787 
M27.554920,130.483093 
	C27.389961,131.489532 27.225002,132.495972 27.060043,133.502411 
	C27.327885,133.534912 27.595724,133.567398 27.863565,133.599884 
	C27.863565,132.676773 27.863565,131.753647 27.554920,130.483093 
z"/>
<path fill="#BCBEC6" opacity="1.000000" stroke="none" 
	d="
M25.824478,125.607224 
	C25.848541,128.739853 25.872606,131.872482 25.807318,135.434067 
	C22.155075,135.514694 18.592184,135.166367 14.913233,134.413605 
	C14.887605,131.392822 14.978037,128.776443 15.143116,125.736244 
	C15.217765,125.312416 15.150039,125.300774 15.622854,125.345917 
	C19.338606,125.463104 22.581541,125.535164 25.824478,125.607224 
z"/>
<path fill="#0F1157" opacity="1.000000" stroke="none" 
	d="
M148.062897,125.316666 
	C148.252472,124.104256 148.499283,123.241661 148.990234,122.138275 
	C150.860580,124.293251 152.486771,126.689034 154.098816,129.436554 
	C152.702164,130.303040 151.319702,130.817749 149.350647,131.550873 
	C149.176910,132.520096 148.869598,134.234482 148.562302,135.948868 
	C148.097229,135.914978 147.632156,135.881073 147.167084,135.847168 
	C147.484772,132.453598 147.802460,129.060043 148.062897,125.316666 
z"/>
<path fill="#1A1C5C" opacity="1.000000" stroke="none" 
	d="
M122.587929,119.193130 
	C122.627403,121.382088 122.453003,123.848984 122.131783,126.646820 
	C122.343704,128.350845 122.702438,129.723923 123.448563,132.579773 
	C121.188736,131.084717 119.820854,130.179749 118.158920,129.092941 
	C119.367935,125.764427 120.870995,122.617752 122.587929,119.193130 
z"/>
<path fill="#D1D1D9" opacity="1.000000" stroke="none" 
	d="
M167.692459,130.995575 
	C167.589264,131.439941 167.486053,131.884293 167.458771,132.668793 
	C166.940445,133.931412 166.346191,134.853897 165.386292,135.689056 
	C165.345490,129.044083 165.661621,122.486000 165.998779,115.929001 
	C166.175278,112.496475 166.388718,109.065849 166.836914,105.299866 
	C167.197388,107.363953 167.306412,109.762550 167.430267,113.009193 
	C167.529633,115.899544 167.614182,117.941833 167.698746,119.984131 
	C167.603226,120.747627 167.507721,121.511131 167.430084,122.963409 
	C167.529892,124.099335 167.611816,124.546471 167.693756,124.993607 
	C167.600861,126.345039 167.507950,127.696465 167.457520,129.728180 
	C167.564148,130.604156 167.628296,130.799866 167.692459,130.995575 
z"/>
<path fill="#D1D2D7" opacity="1.000000" stroke="none" 
	d="
M131.581604,120.404694 
	C131.559143,113.986969 131.635803,107.962616 131.619125,101.479919 
	C131.635529,100.572990 131.745285,100.124397 131.950195,99.341858 
	C132.179138,107.119316 132.312927,115.230705 132.204834,123.681068 
	C131.868896,122.946045 131.774826,121.872047 131.581604,120.404694 
z"/>
<path fill="#393A6F" opacity="1.000000" stroke="none" 
	d="
M127.324753,136.228943 
	C129.374924,135.959213 131.759613,135.861053 134.574432,135.895050 
	C132.556137,136.151627 130.107697,136.276062 127.324753,136.228943 
z"/>
<path fill="#393A6F" opacity="1.000000" stroke="none" 
	d="
M145.003769,129.477936 
	C145.106232,129.022308 145.286591,128.991882 145.741409,128.964417 
	C145.840027,131.136581 145.664215,133.305801 145.149597,135.690247 
	C144.901062,133.904709 144.991364,131.903931 145.003769,129.477936 
z"/>
<path fill="#1A1D6D" opacity="1.000000" stroke="none" 
	d="
M131.164856,127.905235 
	C130.820602,128.250671 130.208893,128.600418 129.295975,128.848892 
	C129.628967,128.468262 130.263199,128.188904 131.164856,127.905235 
z"/>
<path fill="#1A1C5C" opacity="1.000000" stroke="none" 
	d="
M119.492371,133.488403 
	C119.510956,133.481125 119.473785,133.495682 119.492371,133.488403 
z"/>
<path fill="#393A6F" opacity="1.000000" stroke="none" 
	d="
M125.879555,129.044647 
	C126.000168,129.229675 125.921730,129.411469 125.631828,129.801773 
	C125.507080,129.687317 125.593796,129.364365 125.879555,129.044647 
z"/>
<path fill="#4A4B85" opacity="1.000000" stroke="none" 
	d="
M204.950439,120.660454 
	C204.700256,120.470520 204.751282,120.228081 205.058807,119.897461 
	C205.386276,120.069687 205.365036,120.335907 204.950439,120.660454 
z"/>
<path fill="#070A52" opacity="1.000000" stroke="none" 
	d="
M25.867498,125.204895 
	C22.581541,125.535164 19.338606,125.463104 15.658153,125.350479 
	C15.970507,124.764168 16.685305,123.814438 17.476595,123.745735 
	C20.246653,123.505234 23.043089,123.568565 25.915623,123.757492 
	C25.971333,124.266525 25.940926,124.534546 25.867498,125.204895 
z"/>
<path fill="#090B54" opacity="1.000000" stroke="none" 
	d="
M205.823868,108.003876 
	C205.367386,107.595932 205.300491,107.185928 205.711365,106.443512 
	C208.124741,106.075195 210.060318,106.039284 211.995895,106.003380 
	C210.068405,106.669518 208.140930,107.335663 205.823868,108.003876 
z"/>
<path fill="#090B54" opacity="1.000000" stroke="none" 
	d="
M205.737823,117.955948 
	C205.378738,116.031433 205.314941,113.841927 205.346344,111.325989 
	C205.638733,113.230026 205.835907,115.460495 205.737823,117.955948 
z"/>
<path fill="#4A4B85" opacity="1.000000" stroke="none" 
	d="
M212.027039,105.756699 
	C210.060318,106.039284 208.124741,106.075195 205.779938,106.136200 
	C205.314499,105.939323 205.258286,105.717339 205.092529,105.218704 
	C204.983002,104.942047 204.889557,104.926826 204.889557,104.926826 
	C206.967133,104.969185 209.044693,105.011543 211.566666,105.034447 
	C212.011063,105.014999 212.058182,105.510025 212.027039,105.756699 
z"/>
<path fill="#090E5D" opacity="1.000000" stroke="none" 
	d="
M11.106495,127.571823 
	C11.055588,127.628922 10.879473,127.424179 10.879473,127.424179 
	C10.879473,127.424179 11.157401,127.514717 11.106495,127.571823 
z"/>
<path fill="#0F1065" opacity="1.000000" stroke="none" 
	d="
M204.977585,104.895020 
	C203.177231,104.847992 201.382278,104.847992 199.335815,104.847992 
	C199.285278,109.892113 195.764801,109.351204 192.773926,108.944740 
	C187.964996,108.291206 190.384079,104.350060 190.002716,101.801224 
	C189.460526,98.177513 192.277145,97.997604 194.750214,97.899910 
	C198.026398,97.770477 201.311554,97.868019 204.825912,97.868019 
	C204.933685,100.249344 205.024048,102.246086 205.001984,104.584824 
	C204.889557,104.926826 204.983002,104.942047 204.977585,104.895020 
z"/>
<path fill="#0A0B6A" opacity="1.000000" stroke="none" 
	d="
M179.969666,119.983795 
	C179.318634,118.636909 178.319092,117.344299 178.098892,115.930321 
	C177.774750,113.848923 178.003769,111.680969 178.001801,109.549881 
	C177.993988,101.071152 177.994644,101.071152 170.096558,98.356873 
	C172.056488,98.042488 174.108231,97.990425 176.876160,98.262390 
	C178.394775,100.222496 179.801483,101.827110 179.888641,103.500443 
	C180.174103,108.981438 179.979630,114.487419 179.969666,119.983795 
z"/>
<path fill="#C6C7C9" opacity="1.000000" stroke="none" 
	d="
M157.243027,93.753426 
	C163.325394,90.269600 171.656601,91.578209 172.706024,96.239952 
	C167.903717,94.297531 163.192627,92.187691 158.571915,96.007034 
	C158.096191,95.375114 157.620483,94.743202 157.243027,93.753426 
z"/>
<path fill="#04044B" opacity="1.000000" stroke="none" 
	d="
M179.978912,120.399551 
	C179.979630,114.487419 180.174103,108.981438 179.888641,103.500443 
	C179.801483,101.827110 178.394775,100.222496 177.311798,98.348206 
	C178.305817,98.109993 179.580414,98.109993 181.307465,98.109993 
	C181.307465,107.951797 181.307465,117.531120 181.169312,127.563202 
	C180.223572,127.957924 179.415970,127.899872 179.072723,127.875198 
	C179.391861,125.413925 179.690002,123.114616 179.978912,120.399551 
z"/>
<path fill="#C6C7C9" opacity="1.000000" stroke="none" 
	d="
M154.486084,96.878723 
	C154.130936,96.549736 154.060776,96.105103 154.049316,95.324486 
	C154.584854,94.402740 155.061676,93.816986 155.538483,93.231232 
	C155.778976,93.362846 156.019455,93.494469 156.259933,93.626083 
	C155.763641,94.671753 155.267349,95.717422 154.486084,96.878723 
z"/>
<path fill="#403E76" opacity="1.000000" stroke="none" 
	d="
M159.836029,98.808990 
	C159.463623,98.912476 159.270996,98.717018 159.073486,98.256851 
	C158.997879,98.061821 159.485855,97.971138 159.728760,98.021927 
	C159.962799,98.241730 159.953934,98.410736 159.836029,98.808990 
z"/>
<path fill="#5C5C8C" opacity="1.000000" stroke="none" 
	d="
M167.776230,98.000221 
	C167.966690,98.323837 167.870300,98.592987 167.580566,98.993500 
	C167.317902,98.970268 167.213470,98.803093 167.065857,98.343773 
	C167.189972,98.020523 167.357239,97.989426 167.776230,98.000221 
z"/>
<path fill="#393A6F" opacity="1.000000" stroke="none" 
	d="
M141.017151,105.657333 
	C140.677231,105.999397 140.299240,106.034149 139.635895,106.072418 
	C139.090820,105.293045 138.831085,104.510155 138.571350,103.727257 
	C139.373917,104.268173 140.176498,104.809097 141.017151,105.657333 
z"/>
<path fill="#403E76" opacity="1.000000" stroke="none" 
	d="
M158.412476,119.599960 
	C158.567703,119.079102 158.786484,118.835922 159.363403,118.257263 
	C159.657761,118.772087 159.593979,119.622383 159.530197,120.472679 
	C159.178802,120.274330 158.827408,120.075981 158.412476,119.599960 
z"/>
<path fill="#393A6F" opacity="1.000000" stroke="none" 
	d="
M141.319656,128.963837 
	C141.545807,128.752014 142.104904,128.637756 142.835587,128.684570 
	C142.555649,128.917572 142.104126,128.989471 141.319656,128.963837 
z"/>
<path fill="#030153" opacity="1.000000" stroke="none" 
	d="
M167.687515,103.258682 
	C167.969360,103.215858 168.139923,103.406288 168.310486,103.596725 
	C168.205185,103.687836 168.099899,103.778954 167.872192,103.924454 
	C167.691956,103.816536 167.634094,103.654243 167.687515,103.258682 
z"/>
<path fill="#403E76" opacity="1.000000" stroke="none" 
	d="
M159.815765,101.780014 
	C159.651550,101.766792 159.561157,101.472321 159.593765,101.060654 
	C159.774368,101.128555 159.831985,101.313652 159.815765,101.780014 
z"/>
<path fill="#393A6F" opacity="1.000000" stroke="none" 
	d="
M139.238693,112.224121 
	C139.619583,112.183578 139.692062,112.470795 139.430267,112.927765 
	C139.254974,112.857018 139.199738,112.675133 139.238693,112.224121 
z"/>
<path fill="#403E76" opacity="1.000000" stroke="none" 
	d="
M159.812897,113.782944 
	C159.451309,113.816383 159.384155,113.523987 159.633820,113.064407 
	C159.800629,113.134003 159.852875,113.320633 159.812897,113.782944 
z"/>
<path fill="#0D105E" opacity="1.000000" stroke="none" 
	d="
M78.997543,127.997421 
	C77.517616,126.522942 76.037689,125.048462 74.361359,123.316605 
	C70.064827,118.255692 68.237297,118.237495 65.198013,122.969948 
	C62.213268,127.617470 56.527847,129.784821 50.290066,128.653046 
	C44.457809,127.594841 41.211407,124.462128 39.917717,118.643936 
	C37.866966,109.420959 41.175068,101.129410 47.867676,98.717842 
	C54.270100,96.410843 60.004490,98.438911 65.077858,104.056892 
	C66.323746,105.436516 69.012749,105.845474 71.073883,105.942177 
	C71.649673,105.969200 72.352592,103.286423 73.074921,101.418053 
	C73.810616,100.569923 74.468590,100.150482 75.512108,99.485260 
	C75.423515,100.842979 75.365242,101.736023 75.289482,102.897003 
	C76.542152,102.324310 77.649513,101.818054 79.067352,101.247833 
	C78.959183,102.266113 78.540520,103.348351 77.659477,104.815536 
	C77.090302,106.125343 76.983505,107.050209 76.876709,107.975075 
	C76.973122,111.648415 77.069542,115.321747 76.961792,119.659966 
	C77.200867,121.229004 77.644104,122.133163 78.087341,123.037323 
	C78.087341,123.037323 78.248695,123.151733 78.236038,123.610062 
	C78.676987,124.610519 79.130592,125.152641 79.584198,125.694763 
	C79.584198,125.694763 79.486786,125.676147 79.384644,126.029343 
	C79.187508,126.920830 79.092522,127.459122 78.997543,127.997421 
z"/>
<path fill="#0C1172" opacity="1.000000" stroke="none" 
	d="
M88.392365,92.217850 
	C87.522522,91.905289 86.627541,91.553970 85.732552,91.202652 
	C85.885490,90.928596 86.038429,90.654541 86.191368,90.380486 
	C86.831947,90.804565 87.472527,91.228653 88.282898,91.937393 
	C88.452682,92.222046 88.367218,92.179092 88.392365,92.217850 
z"/>
<path fill="#0D105E" opacity="1.000000" stroke="none" 
	d="
M80.913872,98.247543 
	C80.776505,99.105766 80.281975,100.018204 79.534584,101.118019 
	C79.706718,100.304184 80.131714,99.302963 80.913872,98.247543 
z"/>
<path fill="#0D105E" opacity="1.000000" stroke="none" 
	d="
M81.752975,97.190735 
	C81.835114,97.348106 81.743355,97.689507 81.401703,98.161377 
	C81.294228,97.986145 81.436653,97.680458 81.752975,97.190735 
z"/>
<path fill="#0D105E" opacity="1.000000" stroke="none" 
	d="
M113.258057,117.978790 
	C108.665390,127.997910 102.980957,130.725555 94.757378,127.851219 
	C87.213432,125.214432 83.720627,115.248322 87.032982,106.723480 
	C89.981064,99.136154 97.757355,95.864227 105.481453,98.961166 
	C111.864197,101.520279 114.772942,108.402382 113.258057,117.978790 
z"/>
<path fill="#0E1054" opacity="1.000000" stroke="none" 
	d="
M77.031891,107.704681 
	C76.983505,107.050209 77.090302,106.125343 77.461273,105.103546 
	C77.545990,105.815834 77.366524,106.625053 77.031891,107.704681 
z"/>
<path fill="#0E1054" opacity="1.000000" stroke="none" 
	d="
M78.089630,122.704071 
	C77.644104,122.133163 77.200867,121.229004 76.954224,120.117630 
	C77.464516,120.730553 77.778221,121.550690 78.089630,122.704071 
z"/>
<path fill="#0E1054" opacity="1.000000" stroke="none" 
	d="
M78.998764,127.998711 
	C79.092522,127.459122 79.187508,126.920830 79.419983,125.994560 
	C79.869331,126.007820 80.181183,126.409058 80.583450,127.050140 
	C80.673874,127.289986 80.333908,127.652328 79.914703,127.828232 
	C79.495506,128.004135 79.003571,128.002197 79.003571,128.002197 
	C79.003571,128.002197 79.000000,128.000000 78.998764,127.998711 
z"/>
<path fill="#0E1054" opacity="1.000000" stroke="none" 
	d="
M79.496536,125.347305 
	C79.130592,125.152641 78.676987,124.610519 78.186264,123.695526 
	C78.569054,123.881721 78.988960,124.440781 79.496536,125.347305 
z"/>
<path fill="#030153" opacity="1.000000" stroke="none" 
	d="
M167.951904,119.782379 
	C167.614182,117.941833 167.529633,115.899544 167.573318,113.435654 
	C167.869400,115.202919 168.037247,117.391777 167.951904,119.782379 
z"/>
<path fill="#07094B" opacity="1.000000" stroke="none" 
	d="
M167.978912,130.987000 
	C167.628296,130.799866 167.564148,130.604156 167.596207,130.114746 
	C167.857666,129.652649 167.998154,129.465652 168.381226,129.117065 
	C168.648575,128.974060 169.017670,128.978729 169.017670,128.978729 
	C169.430450,129.357330 169.843231,129.735916 170.256012,130.114517 
	C169.592453,130.402481 168.928909,130.690445 167.978912,130.987000 
z"/>
<path fill="#030153" opacity="1.000000" stroke="none" 
	d="
M167.944626,124.960358 
	C167.611816,124.546471 167.529892,124.099335 167.571075,123.328163 
	C168.264236,123.252739 168.834290,123.501350 169.404327,123.749954 
	C169.001373,124.142334 168.598434,124.534721 167.944626,124.960358 
z"/>
<path fill="#030153" opacity="1.000000" stroke="none" 
	d="
M168.934708,128.884537 
	C169.017670,128.978729 168.648575,128.974060 168.465942,128.962891 
	C168.417175,128.683151 168.606659,128.629364 168.934708,128.884537 
z"/>
<path fill="#1A1D6D" opacity="1.000000" stroke="none" 
	d="
M125.598999,105.718796 
	C125.175941,105.935211 124.808395,105.935204 124.440842,105.935196 
	C124.550232,105.546188 124.659615,105.157181 124.768997,104.768173 
	C125.064163,105.012909 125.359337,105.257645 125.598999,105.718796 
z"/>
<path fill="#1A1D6D" opacity="1.000000" stroke="none" 
	d="
M129.998520,104.616615 
	C129.928482,104.615669 130.003357,104.393700 130.003357,104.393700 
	C130.003357,104.393700 130.068558,104.617561 129.998520,104.616615 
z"/>
<path fill="#0D105E" opacity="1.000000" stroke="none" 
	d="
M79.109467,128.109375 
	C79.003571,128.002197 79.495506,128.004135 79.741280,128.006104 
	C79.987053,128.008087 79.634872,128.270782 79.634872,128.270782 
	C79.634872,128.270782 79.215370,128.216568 79.109467,128.109375 
z"/>
<path fill="#07094B" opacity="1.000000" stroke="none" 
	d="
M27.709244,130.656815 
	C27.863565,131.753647 27.863565,132.676773 27.863565,133.599884 
	C27.595724,133.567398 27.327885,133.534912 27.060043,133.502411 
	C27.225002,132.495972 27.389961,131.489532 27.709244,130.656815 
z"/>
</svg>